HIERARCHY
ROOT Hips
{
  OFFSET -0.589095 22.1471 2.58842
  CHANNELS 6 Xposition Yposition Zposition Zrotation Xrotation Yrotation
  JOINT BN_Bip01_Pelvis
  {
    OFFSET -3.49357 -5.29363 -0.000213444
    CHANNELS 6 Xposition Yposition Zposition Zrotation Xrotation Yrotation
    JOINT BN_leg_R_01
    {
      OFFSET 10.8127 -7.82778 -6.29737
      CHANNELS 6 Xposition Yposition Zposition Zrotation Xrotation Yrotation
      JOINT BN_leg_R_02
      {
        OFFSET 8.91071 0 0
        CHANNELS 6 Xposition Yposition Zposition Zrotation Xrotation Yrotation
        JOINT BN_leg_R_03
        {
          OFFSET 15.6024 0 0
          CHANNELS 6 Xposition Yposition Zposition Zrotation Xrotation Yrotation
          JOINT BN_leg_R_04
          {
            OFFSET 9.68174 0 0
            CHANNELS 6 Xposition Yposition Zposition Zrotation Xrotation Yrotation
            JOINT BN_leg_R_05
            {
              OFFSET 10.6982 0 0
              CHANNELS 6 Xposition Yposition Zposition Zrotation Xrotation Yrotation
              JOINT BN_Leg_R_05Nub
              {
                OFFSET 11.1504 0 0
                CHANNELS 6 Xposition Yposition Zposition Zrotation Xrotation Yrotation
                End Site
                {
                  OFFSET 0 0 0
                }
              }
            }
          }
        }
      }
    }
    JOINT BN_leg_R_06
    {
      OFFSET 6.51511 -7.99898 -4.29089
      CHANNELS 6 Xposition Yposition Zposition Zrotation Xrotation Yrotation
      JOINT BN_Leg_R_07
      {
        OFFSET 9.03709 0 0
        CHANNELS 6 Xposition Yposition Zposition Zrotation Xrotation Yrotation
        JOINT BN_Leg_R_08
        {
          OFFSET 18.7638 0 0
          CHANNELS 6 Xposition Yposition Zposition Zrotation Xrotation Yrotation
          JOINT BN_Leg_R_09
          {
            OFFSET 10.9666 0 0
            CHANNELS 6 Xposition Yposition Zposition Zrotation Xrotation Yrotation
            JOINT BN_Leg_R_10
            {
              OFFSET 10.8726 0 0
              CHANNELS 6 Xposition Yposition Zposition Zrotation Xrotation Yrotation
              JOINT BN_Leg_R_10Nub
              {
                OFFSET 11.2648 0 0
                CHANNELS 6 Xposition Yposition Zposition Zrotation Xrotation Yrotation
                End Site
                {
                  OFFSET 0 0 0
                }
              }
            }
          }
        }
      }
    }
    JOINT BN_Leg_R_11
    {
      OFFSET 2.71429 -8.18693 -0.209972
      CHANNELS 6 Xposition Yposition Zposition Zrotation Xrotation Yrotation
      JOINT BN_Leg_R_12
      {
        OFFSET 9.8713 0 0
        CHANNELS 6 Xposition Yposition Zposition Zrotation Xrotation Yrotation
        JOINT BN_Leg_R_13
        {
          OFFSET 21.8657 0 0
          CHANNELS 6 Xposition Yposition Zposition Zrotation Xrotation Yrotation
          JOINT BN_Leg_R_14
          {
            OFFSET 11.0011 0 0
            CHANNELS 6 Xposition Yposition Zposition Zrotation Xrotation Yrotation
            JOINT BN_Leg_R_15
            {
              OFFSET 12.8798 0 0
              CHANNELS 6 Xposition Yposition Zposition Zrotation Xrotation Yrotation
              JOINT BN_Leg_R_15Nub
              {
                OFFSET 13.0642 0 0
                CHANNELS 6 Xposition Yposition Zposition Zrotation Xrotation Yrotation
                End Site
                {
                  OFFSET 0 0 0
                }
              }
            }
          }
        }
      }
    }
    JOINT BN_Leg_L_11
    {
      OFFSET 2.7143 8.18692 -0.209982
      CHANNELS 6 Xposition Yposition Zposition Zrotation Xrotation Yrotation
      JOINT BN_Leg_L_12
      {
        OFFSET 9.87129 0 0
        CHANNELS 6 Xposition Yposition Zposition Zrotation Xrotation Yrotation
        JOINT BN_Leg_L_13
        {
          OFFSET 21.8657 0 0
          CHANNELS 6 Xposition Yposition Zposition Zrotation Xrotation Yrotation
          JOINT BN_Leg_L_14
          {
            OFFSET 11.0011 0 0
            CHANNELS 6 Xposition Yposition Zposition Zrotation Xrotation Yrotation
            JOINT BN_Leg_L_15
            {
              OFFSET 12.8798 0 0
              CHANNELS 6 Xposition Yposition Zposition Zrotation Xrotation Yrotation
              JOINT BN_Leg_L_15Nub
              {
                OFFSET 13.0642 0 0
                CHANNELS 6 Xposition Yposition Zposition Zrotation Xrotation Yrotation
                End Site
                {
                  OFFSET 0 0 0
                }
              }
            }
          }
        }
      }
    }
    JOINT BN_leg_L_06
    {
      OFFSET 6.51511 7.99896 -4.29091
      CHANNELS 6 Xposition Yposition Zposition Zrotation Xrotation Yrotation
      JOINT BN_Leg_L_07
      {
        OFFSET 9.03709 0 0
        CHANNELS 6 Xposition Yposition Zposition Zrotation Xrotation Yrotation
        JOINT BN_Leg_L_08
        {
          OFFSET 18.7638 0 0
          CHANNELS 6 Xposition Yposition Zposition Zrotation Xrotation Yrotation
          JOINT BN_Leg_L_09
          {
            OFFSET 10.9666 0 0
            CHANNELS 6 Xposition Yposition Zposition Zrotation Xrotation Yrotation
            JOINT BN_Leg_L_10
            {
              OFFSET 10.8726 0 0
              CHANNELS 6 Xposition Yposition Zposition Zrotation Xrotation Yrotation
              JOINT BN_Leg_L_10Nub
              {
                OFFSET 11.2649 0 0
                CHANNELS 6 Xposition Yposition Zposition Zrotation Xrotation Yrotation
                End Site
                {
                  OFFSET 0 0 0
                }
              }
            }
          }
        }
      }
    }
    JOINT BN_leg_L_01
    {
      OFFSET 10.8127 7.82776 -6.29737
      CHANNELS 6 Xposition Yposition Zposition Zrotation Xrotation Yrotation
      JOINT BN_leg_L_02
      {
        OFFSET 8.91072 0 0
        CHANNELS 6 Xposition Yposition Zposition Zrotation Xrotation Yrotation
        JOINT BN_leg_L_03
        {
          OFFSET 15.6024 0 0
          CHANNELS 6 Xposition Yposition Zposition Zrotation Xrotation Yrotation
          JOINT BN_leg_L_04
          {
            OFFSET 9.68174 0 0
            CHANNELS 6 Xposition Yposition Zposition Zrotation Xrotation Yrotation
            JOINT BN_leg_L_05
            {
              OFFSET 10.6982 0 0
              CHANNELS 6 Xposition Yposition Zposition Zrotation Xrotation Yrotation
              JOINT BN_Leg_L_05Nub
              {
                OFFSET 11.1504 0 0
                CHANNELS 6 Xposition Yposition Zposition Zrotation Xrotation Yrotation
                End Site
                {
                  OFFSET 0 0 0
                }
              }
            }
          }
        }
      }
    }
    JOINT BN_Eye_L_01
    {
      OFFSET 28.5502 2.54627 -3.93739
      CHANNELS 6 Xposition Yposition Zposition Zrotation Xrotation Yrotation
      JOINT BN_Eye_L_02
      {
        OFFSET 2.30267 0 0
        CHANNELS 6 Xposition Yposition Zposition Zrotation Xrotation Yrotation
        JOINT BN_Eye_L_03
        {
          OFFSET 5.31894 0 0
          CHANNELS 6 Xposition Yposition Zposition Zrotation Xrotation Yrotation
          JOINT BN_Eye_L_04
          {
            OFFSET 9.71244 0 0
            CHANNELS 6 Xposition Yposition Zposition Zrotation Xrotation Yrotation
            End Site
            {
              OFFSET 0 0 0
            }
          }
        }
      }
    }
    JOINT BN_Eye_R_01
    {
      OFFSET 28.5502 -2.54612 -3.93738
      CHANNELS 6 Xposition Yposition Zposition Zrotation Xrotation Yrotation
      JOINT BN_Eye_R_02
      {
        OFFSET 2.30267 0 0
        CHANNELS 6 Xposition Yposition Zposition Zrotation Xrotation Yrotation
        JOINT BN_Eye_R_03
        {
          OFFSET 5.31896 0 0
          CHANNELS 6 Xposition Yposition Zposition Zrotation Xrotation Yrotation
          JOINT BN_Eye_R_04
          {
            OFFSET 9.71244 0 0
            CHANNELS 6 Xposition Yposition Zposition Zrotation Xrotation Yrotation
            End Site
            {
              OFFSET 0 0 0
            }
          }
        }
      }
    }
    JOINT BN_Arm_L_01
    {
      OFFSET 15.9737 8.03546 -8.36195
      CHANNELS 6 Xposition Yposition Zposition Zrotation Xrotation Yrotation
      JOINT BN_Arm_L_02
      {
        OFFSET 16.8869 0 0
        CHANNELS 6 Xposition Yposition Zposition Zrotation Xrotation Yrotation
        JOINT BN_Arm_L_03
        {
          OFFSET 8.42975 0 0
          CHANNELS 6 Xposition Yposition Zposition Zrotation Xrotation Yrotation
          JOINT BN_Arm_L_04
          {
            OFFSET 7.53864 -0.0312023 2.09083
            CHANNELS 6 Xposition Yposition Zposition Zrotation Xrotation Yrotation
            End Site
            {
              OFFSET 0 0 0
            }
          }
        }
      }
    }
    JOINT BN_Arm_R_01
    {
      OFFSET 14.7806 -6.70232 -9.44366
      CHANNELS 6 Xposition Yposition Zposition Zrotation Xrotation Yrotation
      JOINT BN_Arm_R_02
      {
        OFFSET 19.9827 0 0
        CHANNELS 6 Xposition Yposition Zposition Zrotation Xrotation Yrotation
        JOINT BN_Arm_R_03
        {
          OFFSET 17.4553 0 0
          CHANNELS 6 Xposition Yposition Zposition Zrotation Xrotation Yrotation
          JOINT BN_Arm_R_04
          {
            OFFSET 13.3834 -2.22657 7.3982
            CHANNELS 6 Xposition Yposition Zposition Zrotation Xrotation Yrotation
            End Site
            {
              OFFSET 0 0 0
            }
          }
        }
      }
    }
  }
}
MOTION
Frames:	4
Frame Time:	0.0333333
-20.7244 22.6378 -0.219456 -0 -0.00379759 -0 -3.49325 -8.0258 0 -163.39 -84.4569 153.045 10.8127 -7.82778 -6.29736 -119.037 29.9131 44.0179 8.91072 -1.90735e-006 9.53674e-007 62.2641 0.0746794 1.32768 15.6024 1.43051e-006 -9.53674e-007 -81.002 6.40727 27.8343 9.68174 -3.8147e-006 0 -15.8598 0.598458 -9.51446 10.6982 0 -2.86102e-006 -29.013 4.11553 0.739982 11.1504 3.8147e-006 -1.90735e-006 1.92694e-007 9.90956e-006 5.87042e-008 6.5151 -7.99897 -4.29089 -151.429 17.2348 24.6082 9.03709 -2.86102e-006 -1.90735e-006 103.894 -2.42045 -2.82753 18.7638 -9.53675e-007 0 -87.6132 8.60682 23.3355 10.9665 -3.8147e-006 3.8147e-006 -20.6561 -0.579887 -0.933947 10.8726 3.8147e-006 0 -19.0245 -0.0165519 -2.12335 11.2648 3.8147e-006 1.90735e-006 -1.98918e-006 -1.00583e-008 -4.0119e-008 2.71429 -8.18693 -0.209967 -137.012 32.892 -3.68144 9.87129 -1.90735e-006 0 62.9761 2.2568 -0.500566 21.8657 1.90735e-006 3.55271e-015 -61.8222 1.51715 4.78169 11.0011 7.62939e-006 3.8147e-006 -17.4722 -0.324001 -0.792821 12.8798 -3.81469e-006 -3.8147e-006 -26.449 -0.0312204 0.0716978 13.0642 3.81469e-006 3.8147e-006 6.16572e-007 9.90909e-006 -9.96947e-008 2.7143 8.18692 -0.209976 114.318 -35.648 -25.2417 9.87129 9.53674e-007 1.90735e-006 -46.0439 -2.37895 -0.330728 21.8657 -1.90735e-006 -5.72205e-006 50.801 -1.95712 5.66214 11.0011 -3.8147e-006 -1.90735e-006 21.8709 0.348852 -0.904457 12.8798 0 -3.8147e-006 31.8188 0.0307174 0.0312526 13.0642 -7.62939e-006 -7.6294e-006 -6.27237e-007 1.20248e-006 -2.77146e-007 6.51512 7.99896 -4.2909 109.053 -25.8424 11.4887 9.03709 9.53674e-007 -1.90735e-006 -72.1689 1.78514 -2.74611 18.7638 -2.86102e-006 0 80.2117 -13.5984 21.1937 10.9666 0 -3.55271e-015 34.3004 0.429959 -1.85658 10.8726 3.81469e-006 0 32.5081 0.0147373 -3.06095 11.2648 3.81469e-006 1.90735e-006 2.01991e-007 7.80031e-008 9.79392e-009 10.8127 7.82776 -6.29737 92.576 -37.2453 45.2329 8.91072 9.53674e-007 2.86102e-006 -42.5896 0.32046 0.766751 15.6024 2.86102e-006 9.53674e-007 58.505 -5.11018 19.1834 9.68174 1.90735e-006 -1.77636e-015 23.8123 0.078985 -11.6487 10.6982 0 -3.55271e-015 38.8145 -4.11631 -0.44144 11.1504 -3.8147e-006 -9.53674e-007 4.72697e-008 4.01501e-006 -3.31285e-009 28.5502 2.54627 -3.93738 89.995 -40.8534 50.3814 2.30267 -1.90735e-006 0 -41.2041 0.980072 -6.44296 5.31895 3.55271e-015 2.38419e-007 -12.8811 2.21495 -7.45755 9.71243 3.55271e-015 8.88179e-016 -19.1236 -0.00194511 3.10673 28.5502 -2.54612 -3.93737 89.9968 -39.1541 129.609 2.30267 -1.90735e-006 4.76837e-007 -45.2354 -1.36562 6.09542 5.31895 -3.55271e-015 -8.88179e-016 -12.0797 0.0763537 5.9293 9.71243 9.53675e-007 -5.36442e-007 -22.5615 -1.21319 0.20021 15.9737 8.03546 -8.36195 56.5593 26.2117 3.73449 16.8869 -2.38419e-006 -1.90735e-006 -51.5045 4.95735 -14.8467 8.42975 0 -9.53675e-007 -25.5911 -3.64236e-006 1.15565e-005 7.53865 -0.031208 2.09083 -7.43618 -4.90694 -12.3517 14.7806 -6.70232 -9.44365 -41.6457 -48.8016 14.5155 19.9827 1.90735e-006 -3.8147e-006 36.1933 1.1859 -25.3426 17.4553 3.8147e-006 9.53674e-007 25.0463 -3.83222 -0.105507 13.3835 -2.22654 7.39821 8.80083 1.66465 -20.5323 
-22.1326 22.9816 -0.219456 -20.5538 -0.0044824 -0.000815396 -3.49325 -8.0258 -2.77556e-017 -163.39 -84.4569 153.045 10.8127 -7.82778 -6.29736 -101.172 38.5038 35.4257 8.91072 -1.90735e-006 9.53674e-007 55.309 -0.104442 1.13137 15.6024 1.43051e-006 -9.53674e-007 -63.2989 14.1261 41.5387 9.68174 -3.8147e-006 4.26325e-014 -23.0074 -0.00792361 -11.4419 10.6982 3.55272e-015 -2.86102e-006 -37.8366 4.11741 -0.318961 11.1504 3.8147e-006 -1.90735e-006 1.92694e-007 9.90956e-006 5.87042e-008 6.5151 -7.99897 -4.29089 -143.708 12.8854 29.1691 9.03709 -2.86102e-006 -1.90735e-006 104.809 -2.436 -2.81146 18.7638 -9.53675e-007 0 -77.7272 12.5084 26.8232 10.9665 -3.8147e-006 3.8147e-006 -26.6565 -0.519657 -1.34388 10.8726 3.8147e-006 -7.10543e-015 -24.9326 -0.0150138 -2.56313 11.2648 3.8147e-006 1.90735e-006 -1.98918e-006 -1.00584e-008 -4.0119e-008 2.71429 -8.18693 -0.209967 -150.153 26.8356 9.69489 9.87129 -1.90735e-006 3.55271e-015 70.0232 2.10963 -0.584341 21.8657 1.90735e-006 0 -63.9642 5.24643 13.5399 11.0011 7.62939e-006 3.8147e-006 -18.1316 -0.327878 -0.810648 12.8798 -3.81469e-006 -3.8147e-006 -27.2562 -0.0290295 0.0650455 13.0642 3.81469e-006 3.8147e-006 6.16572e-007 9.90909e-006 -9.96947e-008 2.7143 8.18692 -0.209976 133.356 -33.8838 -7.72053 9.87129 9.53674e-007 1.90735e-006 -58.0759 -2.10589 -0.575261 21.8657 -1.90735e-006 -5.72205e-006 58.6863 -7.0187 16.3118 11.0011 -3.8147e-006 -1.90735e-006 20.633 0.343115 -0.869655 12.8798 0 -3.8147e-006 30.3117 0.0348817 0.0405934 13.0642 -7.62939e-006 -7.6294e-006 -6.27237e-007 1.20248e-006 -2.77146e-007 6.51512 7.99896 -4.2909 100.345 -26.3234 7.84552 9.03709 9.53674e-007 -1.90735e-006 -67.8747 1.70094 -2.64255 18.7638 -2.86102e-006 -7.10543e-015 71.2695 -24.3627 34.5928 10.9666 -3.55271e-015 7.10543e-015 40.1554 0.351256 -2.23123 10.8726 3.81469e-006 -2.13163e-014 38.3318 0.0168057 -3.3884 11.2648 3.81469e-006 1.90735e-006 2.01991e-007 7.80031e-008 9.79392e-009 10.8127 7.82776 -6.29737 43.1483 -47.0834 8.50563 8.91072 9.53674e-007 2.86102e-006 -0.265797 0.479111 0.0011129 15.6024 2.86102e-006 9.53674e-007 16.1907 -21.5488 36.2549 9.68174 1.90735e-006 7.81597e-014 35.5529 1.06637 -14.5148 10.6982 -7.10543e-015 1.06581e-014 52.8735 -4.11404 -2.17525 11.1504 -3.8147e-006 -9.53674e-007 4.72697e-008 4.01501e-006 -3.31285e-009 28.5502 2.54627 -3.93738 89.995 -40.8534 50.3814 2.30267 -1.90735e-006 1.77636e-015 -61.9034 3.80861 -11.4313 5.31895 1.77636e-015 2.38419e-007 -11.6464 -2.27169 -12.9259 9.71243 -3.55271e-015 2.66454e-015 -10.1947 -5.59657 -2.57349 28.5502 -2.54612 -3.93737 89.9968 -39.1541 129.609 2.30267 -1.90735e-006 4.76837e-007 -62.9714 -4.41253 14.514 5.31895 0 3.55271e-015 -11.9912 3.11945 11.1384 9.71243 9.53675e-007 -5.36442e-007 -14.6609 3.45028 3.48986 15.9737 8.03546 -8.36195 55.4342 25.8755 5.33918 16.8869 -2.38419e-006 -1.90735e-006 -52.0887 4.89314 -12.9147 8.42975 -7.10543e-015 -9.53675e-007 -25.6654 0.379497 0.984655 7.53865 -0.031208 2.09083 -7.43953 -4.94225 -11.3988 14.7806 -6.70232 -9.44365 -43.7816 -47.3355 11.9358 19.9827 1.90735e-006 -3.8147e-006 36.2739 1.14357 -29.3814 17.4553 3.8147e-006 9.53674e-007 26.4613 -2.92617 -1.98696 13.3835 -2.22654 7.39821 8.6747 1.70776 -16.2923 
-24.3122 23.7314 -0.219456 -40.7085 -0.00485776 -0.00180121 -3.49325 -8.0258 2.77556e-017 -163.39 -84.4569 153.045 10.8127 -7.82778 -6.29736 -76.6269 45.8291 16.8107 8.91072 -1.90735e-006 9.53674e-007 37.9219 -0.367933 0.640407 15.6024 1.43051e-006 -9.53674e-007 -31.9809 22.613 51.3954 9.68174 -3.8147e-006 1.13687e-013 -28.5248 -0.48174 -12.8357 10.6982 0 -2.86102e-006 -44.4942 4.11575 -1.15526 11.1504 3.8147e-006 -1.90735e-006 1.92694e-007 9.90956e-006 5.87042e-008 6.5151 -7.99897 -4.29089 -130.31 11.5022 30.5133 9.03709 -2.86102e-006 -1.90735e-006 103.277 -2.40738 -2.83776 18.7638 -9.53675e-007 1.42109e-014 -65.5802 14.6288 27.1974 10.9665 -3.8147e-006 3.8147e-006 -30.4602 -0.477403 -1.60156 10.8726 3.8147e-006 -2.84217e-014 -28.698 -0.0160124 -2.81641 11.2648 3.8147e-006 1.90735e-006 -1.98918e-006 -1.00585e-008 -4.0119e-008 2.71429 -8.18693 -0.209967 -155.007 18.4553 21.5081 9.87129 -1.90735e-006 -7.10543e-015 75.8098 1.99739 -0.625417 21.8657 1.90735e-006 1.24345e-013 -61.6129 8.74771 20.2613 11.0011 7.62939e-006 3.8147e-006 -20.3658 -0.341554 -0.867916 12.8798 -3.81469e-006 -3.8147e-006 -29.9902 -0.024593 0.0505818 13.0642 3.81469e-006 3.8147e-006 6.16572e-007 9.90909e-006 -9.96947e-008 2.7143 8.18692 -0.209976 143.223 -27.2118 7.47299 9.87129 9.53674e-007 1.90735e-006 -67.3566 -1.8886 -0.674648 21.8657 -1.90735e-006 -5.72205e-006 60.047 -11.2664 24.7143 11.0011 -3.8147e-006 -1.90735e-006 21.7712 0.349636 -0.904151 12.8798 0 -3.8147e-006 31.6989 0.0306498 0.0313081 13.0642 -7.6294e-006 -7.6294e-006 -6.27237e-007 1.20248e-006 -2.77146e-007 6.51512 7.99896 -4.2909 89.099 -26.9846 1.68361 9.03709 9.53674e-007 -1.90735e-006 -60.1113 1.55596 -2.40939 18.7638 -2.86102e-006 7.10543e-015 53.5431 -34.3426 47.3212 10.9666 5.32907e-015 -7.10543e-015 44.9256 0.280051 -2.52655 10.8726 3.81469e-006 2.84217e-014 43.094 0.0147836 -3.61971 11.2648 3.81469e-006 1.90735e-006 2.01991e-007 7.80031e-008 9.79392e-009 10.8127 7.82776 -6.29737 22.1404 -40.4162 -12.7473 8.91072 9.53674e-007 2.86102e-006 -0.265795 0.479111 0.00111287 15.6024 2.86102e-006 9.53674e-007 11.4742 -19.1591 42.79 9.68174 1.90735e-006 1.03029e-013 24.7395 0.158593 -11.8888 10.6982 -7.10543e-015 3.55271e-015 39.9396 -4.11535 -0.581574 11.1504 -3.8147e-006 -9.53674e-007 4.72697e-008 4.01501e-006 -3.31284e-009 28.5502 2.54627 -3.93738 89.995 -40.8534 50.3814 2.30267 -1.90735e-006 -1.77636e-015 -81.7065 6.45092 -16.3198 5.31895 8.88178e-016 2.38419e-007 -7.71056 -6.46401 -18.3288 9.71243 8.88179e-016 3.55272e-015 0.0800394 -10.9868 -8.27331 28.5502 -2.54612 -3.93737 89.9968 -39.1541 129.609 2.30267 -1.90735e-006 4.76837e-007 -79.0779 -7.96387 22.8721 5.31895 1.77636e-015 0 -9.19843 5.97102 16.2556 9.71243 9.53675e-007 -5.36442e-007 -4.55609 7.98107 6.74529 15.9737 8.03546 -8.36195 52.7739 25.3901 9.47738 16.8869 -2.38419e-006 -1.90735e-006 -53.5775 4.67275 -7.92413 8.42975 0 -9.53675e-007 -25.9095 1.36539 3.53722 7.53865 -0.0312081 2.09083 -7.43751 -5.00041 -8.90996 14.7806 -6.70232 -9.44365 -45.6786 -45.8717 9.56171 19.9827 1.90735e-006 -3.8147e-006 36.3525 1.09954 -33.2206 17.4553 3.8147e-006 9.53674e-007 27.9098 -2.03578 -3.73701 13.3835 -2.22654 7.39821 8.37881 1.76717 -6.50837 
-25.8357 24.9148 -0.219456 -19.0797 -0.00167765 -0.000284338 -3.49325 -8.0258 0 -163.39 -84.4569 153.045 10.8127 -7.82778 -6.29736 -99.4915 37.1887 41.6049 8.91072 -1.90735e-006 9.53674e-007 45.4415 -0.28259 0.846284 15.6024 1.43051e-006 -9.53674e-007 -49.6853 12.3215 37.9882 9.68174 -3.8147e-006 5.32907e-014 -21.8783 0.086112 -11.1497 10.6982 3.55272e-015 -2.86102e-006 -36.4621 4.11544 -0.150773 11.1504 3.8147e-006 -1.90735e-006 1.92694e-007 9.90956e-006 5.87042e-008 6.5151 -7.99897 -4.29089 -138.201 7.10881 35.4188 9.03709 -2.86102e-006 -1.90735e-006 103.503 -2.41296 -2.83302 18.7638 -9.53675e-007 -7.10543e-015 -76.9901 8.49118 20.5897 10.9665 -3.8147e-006 3.8147e-006 -22.7329 -0.557939 -1.07532 10.8726 3.8147e-006 3.19744e-014 -21.0639 -0.0166024 -2.28333 11.2648 3.8147e-006 1.90735e-006 -1.98918e-006 -1.00583e-008 -4.0119e-008 2.71429 -8.18693 -0.209967 -150.538 23.1271 14.6988 9.87129 -1.90735e-006 7.10543e-015 75.8364 1.99699 -0.62591 21.8657 1.90735e-006 1.13687e-013 -70.2384 3.78764 10.4025 11.0011 7.62939e-006 3.8147e-006 -15.9167 -0.315322 -0.75033 12.8798 -3.81469e-006 -3.8147e-006 -24.5343 -0.0345056 0.0851863 13.0642 3.81469e-006 3.8147e-006 6.16572e-007 9.90909e-006 -9.96947e-008 2.7143 8.18692 -0.209976 135.744 -31.6899 -1.70336 9.87129 9.53674e-007 1.90735e-006 -66.2172 -1.91407 -0.66519 21.8657 -1.90735e-006 -5.72205e-006 67.5821 -5.26009 13.5214 11.0011 -3.8147e-006 -1.90735e-006 17.5466 0.326932 -0.793575 12.8798 -2.13163e-014 -3.8147e-006 26.5388 0.0435065 0.0655682 13.0642 -7.62939e-006 -7.6294e-006 -6.27237e-007 1.20248e-006 -2.77146e-007 6.51512 7.99896 -4.2909 97.3723 -22.787 12.7459 9.03709 9.53674e-007 -1.90735e-006 -64.4105 1.63339 -2.54705 18.7638 -2.86102e-006 6.03961e-014 65.7648 -22.3881 33.7968 10.9666 -1.06581e-014 3.55271e-015 38.0254 0.382562 -2.09977 10.8726 3.81469e-006 4.61853e-014 36.2123 0.0143836 -3.27609 11.2648 3.81469e-006 1.90735e-006 2.01991e-007 7.80031e-008 9.79392e-009 10.8127 7.82776 -6.29737 48.4122 -47.9777 17.5862 8.91072 9.53674e-007 2.86102e-006 -0.265795 0.479111 0.00111287 15.6024 2.86102e-006 9.53674e-007 15.4628 -14.5369 30.9969 9.68174 1.90735e-006 7.4607e-014 27.4065 0.384723 -12.5551 10.6982 0 0 43.1528 -4.11769 -0.986381 11.1504 -3.8147e-006 -9.53674e-007 4.72697e-008 4.01501e-006 -3.31284e-009 28.5502 2.54627 -3.93738 89.995 -40.8534 50.3814 2.30267 -1.90735e-006 0 -51.6216 4.89417 -13.7595 5.31895 3.55271e-015 2.38419e-007 4.64089 -3.37238 -14.9248 9.71243 1.42109e-014 8.4377e-015 4.98904 -1.36874 -4.39793 28.5502 -2.54612 -3.93737 89.9968 -39.1541 129.609 2.30267 -1.90735e-006 4.76837e-007 -49.3141 -9.83988 14.9373 5.31895 0 -1.77636e-015 3.90142 2.9369 10.9501 9.71243 9.53675e-007 -5.36442e-007 1.10862 -0.553374 2.82801 15.9737 8.03546 -8.36195 49.0592 24.5676 15.4733 16.8869 -2.38419e-006 -1.90735e-006 -55.6701 4.24504 -0.630644 8.42975 -3.55271e-015 -9.53675e-007 -26.4297 2.79319 7.27496 7.53865 -0.0312081 2.09083 -7.43342 -5.05775 -5.22733 14.7806 -6.70232 -9.44365 -33.6783 -55.9574 26.8994 19.9827 1.90735e-006 -3.8147e-006 36.3221 1.11731 -31.7906 17.4553 3.8147e-006 9.53674e-007 27.7629 -2.13594 -3.08647 13.3835 -2.22654 7.39821 8.01306 1.77045 5.28096 
